<svg width="243" height="843" viewBox="0 0 243 843" fill="none" xmlns="http://www.w3.org/2000/svg">
<path d="M218.68 12.6342L24.168 35.3495C16.3723 35.3495 7.98718 33.3032 1.88373 27.3147L1.88373 117.688C8.61464 111.08 18.1216 109.202 26.6018 109.728L217.463 130.378C226.636 131.727 235.022 136.26 241.116 143.163V81.9816L196.681 80.2545V67.9206L241.116 66.0433V-1.52588e-05C235.333 6.63515 227.408 11.0976 218.68 12.6342ZM164.186 79.2032L32.7623 74.1533L164.186 69.1221V79.2032Z" fill="#E8E8E8"/>
<path d="M1.88373 751.906L1.88373 842.023C9.12801 834.112 19.5666 831.324 28.5032 831.305H214.497C223.433 831.324 233.853 834.112 241.116 842.023V765.488C237.882 768.788 234.022 771.424 229.757 773.244C225.493 775.064 220.908 776.032 216.265 776.093H196.662V751.077C196.662 730.582 186.375 713.93 164.833 713.93H33.0855C10.8963 713.93 1.88373 729.753 1.88373 751.906ZM158.083 768.558C162.266 768.558 164.186 770.649 164.186 774.831V776.093H32.7623V774.774C32.7623 769.349 35.0059 768.502 38.8657 768.502L158.083 768.558Z" fill="#E8E8E8"/>
<path d="M0 388.27L0 399.125C0 439.01 17.6266 455.86 47.1179 455.86H196.849C226.34 455.86 243 436.117 243 399.125V387.778C243 352.943 226.662 331.535 196.849 331.535H47.1179C18.5932 331.592 0 348.385 0 388.27ZM200.298 398.331H42.6259C38.3425 398.331 36.106 396.667 35.6511 393.622C36.106 390.294 38.3425 388.629 42.6259 388.629H200.298C204.089 388.629 206.193 390.294 206.629 393.622C206.193 396.667 204.013 398.331 200.298 398.331Z" fill="#E8E8E8"/>
<path d="M214.577 471.065C211.781 471.82 203.163 472.953 203.163 472.953V498.897H201.755L26.235 499.256C17.0192 499.021 8.26876 495.188 1.88373 488.588L1.88373 572.651C9.13205 564.721 19.5765 561.926 28.518 561.907H214.577C223.424 561.907 233.868 564.721 241.116 572.651V453.977C233.944 461.907 228.123 467.383 214.577 471.065Z" fill="#E8E8E8"/>
<path d="M218.68 587.15L24.168 609.866C16.3723 609.866 7.98718 607.819 1.88373 601.831L1.88373 692.204C8.61464 685.615 18.1216 683.719 26.6018 684.244L217.463 704.895C226.641 706.244 235.029 710.784 241.116 717.698V656.517L196.681 654.771V642.437L241.116 640.559V574.535C235.326 581.158 227.404 585.613 218.68 587.15ZM164.186 653.719L32.7623 648.688L164.186 643.657V653.719Z" fill="#E8E8E8"/>
<path d="M28.4081 155.738C19.5666 155.738 9.12801 152.919 1.88373 145.047L1.88373 222.817L102.467 234.523L1.88373 244.557L1.88373 324C9.12801 316.108 19.5666 313.309 28.5032 313.309H214.497C223.338 313.309 233.777 316.108 241.021 324V267.424H128.003L241.116 248.24V221.201L128.573 202.412H241.116V145.065C233.872 152.938 223.433 155.738 214.592 155.757L28.4081 155.738Z" fill="#E8E8E8"/>
</svg>
